<?xml version="1.0" standalone="no"?><svg xmlns="http://www.w3.org/2000/svg" viewBox="0 0 1440 320"><path fill="#ff0000" fill-opacity="1" d="M0,256L10,224C20,192,40,128,60,90.7C80,53,100,43,120,48C140,53,160,75,180,80C200,85,220,75,240,64C260,53,280,43,300,32C320,21,340,11,360,26.7C380,43,400,85,420,96C440,107,460,85,480,85.3C500,85,520,107,540,128C560,149,580,171,600,165.3C620,160,640,128,660,133.3C680,139,700,181,720,186.7C740,192,760,160,780,138.7C800,117,820,107,840,117.3C860,128,880,160,900,160C920,160,940,128,960,133.3C980,139,1000,181,1020,176C1040,171,1060,117,1080,112C1100,107,1120,149,1140,165.3C1160,181,1180,171,1200,181.3C1220,192,1240,224,1260,240C1280,256,1300,256,1320,256C1340,256,1360,256,1380,240C1400,224,1420,192,1430,176L1440,160L1440,320L1430,320C1420,320,1400,320,1380,320C1360,320,1340,320,1320,320C1300,320,1280,320,1260,320C1240,320,1220,320,1200,320C1180,320,1160,320,1140,320C1120,320,1100,320,1080,320C1060,320,1040,320,1020,320C1000,320,980,320,960,320C940,320,920,320,900,320C880,320,860,320,840,320C820,320,800,320,780,320C760,320,740,320,720,320C700,320,680,320,660,320C640,320,620,320,600,320C580,320,560,320,540,320C520,320,500,320,480,320C460,320,440,320,420,320C400,320,380,320,360,320C340,320,320,320,300,320C280,320,260,320,240,320C220,320,200,320,180,320C160,320,140,320,120,320C100,320,80,320,60,320C40,320,20,320,10,320L0,320Z"></path></svg>