<?xml version="1.0" standalone="no"?><svg xmlns="http://www.w3.org/2000/svg" viewBox="0 0 1440 320"><path fill="#fffff" fill-opacity="1" d="M0,256L10,224C20,192,40,128,60,90.7C80,53,100,43,120,48C140,53,160,75,180,80C200,85,220,75,240,64C260,53,280,43,300,32C320,21,340,11,360,26.7C380,43,400,85,420,96C440,107,460,85,480,85.3C500,85,520,107,540,128C560,149,580,171,600,165.3C620,160,640,128,660,133.3C680,139,700,181,720,186.7C740,192,760,160,780,138.7C800,117,820,107,840,117.3C860,128,880,160,900,160C920,160,940,128,960,133.3C980,139,1000,181,1020,176C1040,171,1060,117,1080,112C1100,107,1120,149,1140,165.3C1160,181,1180,171,1200,181.3C1220,192,1240,224,1260,240C1280,256,1300,256,1320,256C1340,256,1360,256,1380,240C1400,224,1420,192,1430,176L1440,160L1440,0L1430,0C1420,0,1400,0,1380,0C1360,0,1340,0,1320,0C1300,0,1280,0,1260,0C1240,0,1220,0,1200,0C1180,0,1160,0,1140,0C1120,0,1100,0,1080,0C1060,0,1040,0,1020,0C1000,0,980,0,960,0C940,0,920,0,900,0C880,0,860,0,840,0C820,0,800,0,780,0C760,0,740,0,720,0C700,0,680,0,660,0C640,0,620,0,600,0C580,0,560,0,540,0C520,0,500,0,480,0C460,0,440,0,420,0C400,0,380,0,360,0C340,0,320,0,300,0C280,0,260,0,240,0C220,0,200,0,180,0C160,0,140,0,120,0C100,0,80,0,60,0C40,0,20,0,10,0L0,0Z"></path></svg>